<?xml version="1.0" encoding="UTF-8" standalone="no"?>
<!-- Created with Inkscape (http://www.inkscape.org/) -->

<svg
   xmlns:dc="http://purl.org/dc/elements/1.1/"
   xmlns:cc="http://creativecommons.org/ns#"
   xmlns:rdf="http://www.w3.org/1999/02/22-rdf-syntax-ns#"
   xmlns:svg="http://www.w3.org/2000/svg"
   xmlns="http://www.w3.org/2000/svg"
   xmlns:sodipodi="http://sodipodi.sourceforge.net/DTD/sodipodi-0.dtd"
   xmlns:inkscape="http://www.inkscape.org/namespaces/inkscape"
   width="512"
   height="512"
   id="svg2"
   version="1.1"
   inkscape:version="0.48.2 r9819"
   sodipodi:docname="freebsd.svg">
  <title
     id="title3037">FreeBSD icon</title>
  <defs
     id="defs4" />
  <sodipodi:namedview
     id="base"
     pagecolor="#ffffff"
     bordercolor="#666666"
     borderopacity="1.0"
     inkscape:pageopacity="0.0"
     inkscape:pageshadow="2"
     inkscape:zoom="0.8721889"
     inkscape:cx="227.09867"
     inkscape:cy="265.20092"
     inkscape:document-units="px"
     inkscape:current-layer="layer1"
     showgrid="false"
     units="px"
     inkscape:window-width="1159"
     inkscape:window-height="889"
     inkscape:window-x="0"
     inkscape:window-y="0"
     inkscape:window-maximized="0" />
  <metadata
     id="metadata7">
    <rdf:RDF>
      <cc:Work
         rdf:about="">
        <dc:format>image/svg+xml</dc:format>
        <dc:type
           rdf:resource="http://purl.org/dc/dcmitype/StillImage" />
        <dc:title>FreeBSD icon</dc:title>
        <dc:creator>
          <cc:Agent>
            <dc:title>Tomohiko Sumi</dc:title>
          </cc:Agent>
        </dc:creator>
        <cc:license
           rdf:resource="http://creativecommons.org/licenses/by/3.0/" />
      </cc:Work>
      <cc:License
         rdf:about="http://creativecommons.org/licenses/by/3.0/">
        <cc:permits
           rdf:resource="http://creativecommons.org/ns#Reproduction" />
        <cc:permits
           rdf:resource="http://creativecommons.org/ns#Distribution" />
        <cc:requires
           rdf:resource="http://creativecommons.org/ns#Notice" />
        <cc:requires
           rdf:resource="http://creativecommons.org/ns#Attribution" />
        <cc:permits
           rdf:resource="http://creativecommons.org/ns#DerivativeWorks" />
      </cc:License>
    </rdf:RDF>
  </metadata>
  <g
     inkscape:label="Layer 1"
     inkscape:groupmode="layer"
     id="layer1"
     transform="translate(0,-540.36223)">
    <path
       style="fill:#ffffff;fill-opacity:1;fill-rule:evenodd;stroke:#000000;stroke-width:1;stroke-linecap:butt;stroke-linejoin:miter;stroke-miterlimit:4;stroke-opacity:1;stroke-dasharray:none;stroke-dashoffset:0"
       d="m 16.140622,567.0259 c 14.117035,52.02817 28.047642,104.10663 41.96875,156.1875 -35.275911,86.50074 -4.160108,195.34168 72.218758,248.875 68.2581,51.0859 169.37463,55.1019 240.4375,7.625 66.96771,-42.556 107.40745,-125.09392 96.3125,-204.3125 -2.15817,-17.61483 -6.21802,-35.10182 -12.5,-51.71875 13.967,-52.59689 28.32739,-105.09336 42.1875,-157.71875 -51.20025,13.53167 -102.41721,26.98895 -153.53125,40.84375 -53.36046,-24.4206 -117.2221,-24.8352 -171.03125,-1.46875 C 119.9049,591.36258 67.607742,577.37923 15.234372,563.68215 c 0.302083,1.11458 0.604167,2.22917 0.90625,3.34375 z"
       id="path3763-6"
       inkscape:connector-curvature="0" />
    <path
       style="fill:#e12602;fill-opacity:1;fill-rule:evenodd;stroke:#000000;stroke-width:12;stroke-linecap:butt;stroke-linejoin:miter;stroke-miterlimit:4;stroke-opacity:1;stroke-dashoffset:0"
       d="M 54.9375,605.37785 87.65625,727.3466 c -10.362929,23.05706 -16.125,48.61372 -16.125,75.53125 0,101.88189 82.58687,184.46875 184.46875,184.46875 101.88189,0 184.46875,-82.58686 184.46875,-184.46875 0,-26.5781 -5.63243,-51.82753 -15.75,-74.65625 L 457.0625,607.62785 340.46875,638.8466 C 315.15797,625.78526 286.44513,618.4091 256,618.4091 c -29.27612,0 -56.94278,6.83121 -81.53125,18.96875 l -119.53125,-32 z"
       id="path3763"
       inkscape:connector-curvature="0" />
  </g>
</svg>
